<?xml version="1.0" encoding="utf-8"?>
<!-- Uploaded to: SVG Repo, www.svgrepo.com, Generator: SVG Repo Mixer Tools -->
<svg width="800px" height="800px" viewBox="0 0 192.756 192.756" xmlns="http://www.w3.org/2000/svg">
<g fill-rule="evenodd" clip-rule="evenodd">
<path fill="#ffffff" d="M0 0h192.756v192.756H0V0z"/>
<path fill="#2761ab" d="M2.834 84.612v3.416h5.603l10.965 20.564h13.493L43.86 87.994l5.602-.035.012-3.347H32.712v3.359h4.464l-7.743 14.619-8.375-14.568 6.109-.028-.011-3.382H2.834zM110.971 84.612v3.416h5.601l10.967 20.564h13.492l10.965-20.598 5.604-.035.009-3.347H140.85v3.359h4.462l-7.742 14.619-8.375-14.568 6.108-.028-.01-3.382h-24.322zM83.402 84.612v3.416h5.603l.008 16.789h-5.905v3.744l5.909.031h27.974V97.43h-3.645c-.199 5.91-5.326 7.395-7.484 7.395-1.98 0-5.814-.008-5.814-.008V88.022l5.518-.028-.008-3.382H83.402zM64.541 83.924c-9.523 0-17.242 5.67-17.242 12.662 0 6.992 7.719 12.662 17.242 12.662s17.243-5.67 17.243-12.662c0-6.992-7.72-12.662-17.243-12.662zm-.247 21.597c-3.357 0-6.077-4.021-6.077-8.984 0-4.964 2.72-8.988 6.077-8.988 3.356 0 6.078 4.024 6.078 8.988 0 4.963-2.722 8.984-6.078 8.984zM172.68 83.508c-9.523 0-17.242 5.761-17.242 12.869 0 7.105 7.719 12.867 17.242 12.867 9.521 0 17.242-5.762 17.242-12.867 0-7.107-7.721-12.869-17.242-12.869zm-.248 21.949c-3.355 0-6.076-4.088-6.076-9.132s2.721-9.133 6.076-9.133c3.357 0 6.076 4.088 6.076 9.133 0 5.044-2.719 9.132-6.076 9.132z"/>
</g>
</svg>