<svg width="134" height="49" viewBox="0 0 134 49" fill="none" xmlns="http://www.w3.org/2000/svg">
<g clip-path="url(#clip0_7355_124060)">
<path d="M15.135 6.64746H0.5V41.6475L15.135 6.64746Z" fill="#94A3B8"/>
<path d="M25.4297 6.64746H40.0456V41.6475L25.4297 6.64746Z" fill="#94A3B8"/>
<path d="M20.2803 19.5474L29.5952 41.6476H23.4837L20.6998 34.6114H13.8828L20.2803 19.5474Z" fill="#94A3B8"/>
<path d="M63.9246 28.9051L65.6502 33.8534C65.7074 33.9773 65.7932 34.0345 65.9458 34.0345H69.2637C69.4448 34.0345 69.4734 33.9487 69.4448 33.7676L62.5898 14.7278C62.5612 14.5752 62.5326 14.5466 62.38 14.5466H58.2612C58.1468 14.5466 58.0801 14.6324 58.0801 14.7564C58.0229 15.7575 57.9371 16.0626 57.8131 16.3581L51.7017 33.739C51.6731 33.9487 51.7399 34.0345 51.9115 34.0345H54.8766C55.0578 34.0345 55.1436 33.9773 55.2103 33.7962L56.8406 28.9051H63.9246ZM57.7845 25.673C58.6807 22.9653 59.863 19.4949 60.3397 17.5118H60.3683C60.9594 19.5902 62.3514 23.709 62.9807 25.673H57.7845Z" fill="#94A3B8"/>
<path d="M78.2533 34.3303C80.0362 34.3303 81.9335 34.0061 83.8594 33.1766C84.0119 33.1194 84.0405 33.0527 84.0405 32.9097C83.9833 32.3758 83.9166 31.6035 83.9166 31.0124V13.0881C83.9166 12.9737 83.9166 12.9165 83.7736 12.9165H80.5415C80.4176 12.9165 80.3603 12.9737 80.3603 13.1263V19.1995C79.855 19.1423 79.5023 19.1137 79.0828 19.1137C73.8676 19.1137 70.6641 22.5556 70.6641 26.8555C70.6641 31.8419 73.9534 34.3303 78.2533 34.3303ZM80.3603 31.0124C79.8264 31.184 79.2353 31.2507 78.6346 31.2507C76.2702 31.2507 74.3347 29.916 74.3347 26.6743C74.3347 23.8045 76.3274 22.1075 78.9683 22.1075C79.5023 22.1075 79.9694 22.1647 80.3603 22.3172V31.0124Z" fill="#94A3B8"/>
<path d="M94.3563 19.1135C89.9038 19.1135 87.1484 22.5268 87.1484 26.7409C87.1484 30.5069 89.3413 34.3301 94.2895 34.3301C98.475 34.3301 101.412 31.2505 101.412 26.6455C101.412 22.584 98.9232 19.1135 94.3563 19.1135ZM94.1751 22.1073C96.6922 22.1073 97.76 24.2715 97.76 26.7409C97.76 29.7918 96.1868 31.3078 94.3563 31.3078C92.0967 31.3078 90.7619 29.4105 90.7619 26.6741C90.7619 23.8616 92.1825 22.1073 94.1751 22.1073Z" fill="#94A3B8"/>
<path d="M104.749 12.9165C104.625 12.9165 104.539 12.9737 104.539 13.1263V33.415C104.539 33.5008 104.625 33.6534 104.749 33.682C106.169 34.1205 107.657 34.3303 109.192 34.3303C113.587 34.3303 117.858 31.6035 117.858 26.1118C117.858 22.1361 115.132 19.1137 110.86 19.1137C109.878 19.1137 108.963 19.2663 108.162 19.5332L108.124 13.1549C108.124 12.9451 108.067 12.9165 107.857 12.9165H104.749ZM114.207 26.4741C114.207 29.7634 111.957 31.3079 109.525 31.3079C109.02 31.3079 108.572 31.2793 108.162 31.1554V22.4984C108.629 22.3172 109.192 22.1647 110.231 22.1647C112.576 22.1647 114.207 23.652 114.207 26.4741Z" fill="#94A3B8"/>
<path d="M129.92 27.5417C131.369 27.5417 132.561 27.5131 132.971 27.4178C133.124 27.3892 133.181 27.332 133.21 27.2081C133.295 26.8839 133.334 26.207 133.334 25.3775C133.334 22.5554 131.636 19.1135 127.251 19.1135C122.77 19.1135 120.281 22.7651 120.281 26.8839C120.281 30.5355 122.207 34.3301 127.603 34.3301C129.625 34.3301 130.931 34.0059 132.056 33.472C132.17 33.4148 132.228 33.3195 132.228 33.1479V30.6785C132.228 30.5355 132.142 30.5069 132.056 30.5641C130.931 31.0408 129.711 31.2792 128.376 31.2792C125.353 31.2792 123.981 29.6107 123.895 27.5417H129.92ZM123.895 24.9866C124.133 23.5374 125.048 21.9642 127.098 21.9642C129.358 21.9642 129.949 23.8616 129.949 24.7196C129.949 24.7482 129.949 24.8722 129.949 24.958C129.825 24.9866 129.444 24.9866 128.319 24.9866H123.895Z" fill="#94A3B8"/>
</g>
<defs>
<clipPath id="clip0_7355_124060">
<rect width="133" height="48" fill="white" transform="translate(0.5 0.647461)"/>
</clipPath>
</defs>
</svg>
