<svg width="179" height="49" viewBox="0 0 179 49" fill="none" xmlns="http://www.w3.org/2000/svg">
<g clip-path="url(#clip0_7355_124061)">
<path d="M6.9493 22.6809C6.8847 22.5964 6.79939 22.5299 6.70161 22.488C6.60384 22.4461 6.4969 22.4301 6.39114 22.4416C6.28538 22.4531 6.18437 22.4917 6.09787 22.5536C6.01138 22.6156 5.94233 22.6988 5.89739 22.7952L0.567246 33.4522C0.518689 33.5493 0.495763 33.6572 0.500644 33.7657C0.505526 33.8742 0.538053 33.9796 0.595138 34.072C0.652222 34.1643 0.731969 34.2406 0.826807 34.2935C0.921645 34.3463 1.02843 34.3741 1.13701 34.3741H8.55897C8.67784 34.3769 8.79496 34.3451 8.8961 34.2825C8.99724 34.22 9.07806 34.1295 9.12874 34.0219C10.7297 30.7136 9.75948 25.6833 6.9493 22.6809Z" fill="#94A3B8"/>
<path d="M10.8564 12.9879C9.52831 15.0314 8.75433 17.3852 8.61046 19.8181C8.46658 22.2511 8.95775 24.6797 10.0358 26.8655L13.614 34.0219C13.6669 34.1277 13.7482 34.2167 13.8488 34.2789C13.9495 34.3411 14.0654 34.3741 14.1837 34.3741H21.6044C21.7129 34.3741 21.8197 34.3463 21.9146 34.2935C22.0094 34.2406 22.0892 34.1643 22.1462 34.072C22.2033 33.9796 22.2358 33.8742 22.2407 33.7657C22.2456 33.6572 22.2227 33.5493 22.1741 33.4522C22.1741 33.4522 12.1909 13.4833 11.94 12.9839C11.8904 12.8822 11.8131 12.7966 11.7171 12.7368C11.621 12.6771 11.5101 12.6456 11.397 12.646C11.2838 12.6464 11.1731 12.6787 11.0775 12.7392C10.9819 12.7997 10.9053 12.8858 10.8564 12.9879Z" fill="#94A3B8"/>
<path d="M97.8941 21.5328C97.8941 24.1717 99.1183 26.2668 103.907 27.1918C106.764 27.7915 107.362 28.2527 107.362 29.205C107.362 30.1299 106.762 30.7287 104.75 30.7287C102.318 30.6849 99.9347 30.04 97.8125 28.8514V33.1497C99.2546 33.8571 101.159 34.6461 104.696 34.6461C109.702 34.6461 111.688 32.4136 111.688 29.096L97.8941 21.5328ZM111.688 29.096C111.688 25.9673 110.028 24.4979 105.349 23.4916C102.764 22.9202 102.138 22.3491 102.138 21.5328C102.138 20.4999 103.063 20.0637 104.777 20.0637C106.845 20.0637 108.886 20.6894 110.817 21.5601V17.4518C108.965 16.6088 106.948 16.1905 104.913 16.2276C100.288 16.2276 97.8941 18.2408 97.8941 21.5328" fill="#94A3B8"/>
<path d="M162.211 16.4995V34.3742H166.02V20.7438L167.625 24.362L173.012 34.3742H177.8V16.4995H173.991V28.0351L172.549 24.6885L168.223 16.4995H162.211Z" fill="#94A3B8"/>
<path d="M137.983 16.4995H133.82V34.3742H137.983V16.4995Z" fill="#94A3B8"/>
<path d="M129.016 29.0958C129.016 25.967 127.356 24.4976 122.677 23.4914C120.092 22.92 119.467 22.3489 119.467 21.5325C119.467 20.4996 120.391 20.0635 122.105 20.0635C124.173 20.0635 126.214 20.6892 128.145 21.5598V17.4515C126.293 16.6085 124.276 16.1903 122.241 16.2274C117.616 16.2274 115.222 18.2405 115.222 21.5325C115.222 24.1714 116.446 26.2666 121.235 27.1915C124.092 27.7913 124.69 28.2524 124.69 29.2047C124.69 30.1297 124.09 30.7284 122.078 30.7284C119.646 30.6847 117.263 30.0398 115.141 28.8512V33.1494C116.583 33.8568 118.487 34.6458 122.024 34.6458C127.03 34.6458 129.016 32.4134 129.016 29.0958Z" fill="#94A3B8"/>
<path d="M65.5625 16.4995V34.3742H74.1183L75.4654 30.5108H69.7521V16.4995H65.5625Z" fill="#94A3B8"/>
<path d="M48.6562 16.4995V20.3626H53.2814V34.3742H57.471V20.3626H62.4226V16.4995H48.6562Z" fill="#94A3B8"/>
<path d="M42.5832 16.4995H37.0925L30.8594 34.3742H35.6194L36.5031 31.3638C38.6793 32.0028 40.9934 32.0028 43.1697 31.3638L44.0533 34.3742H48.8144L42.5832 16.4995ZM39.8377 28.1404C39.0623 28.1404 38.2909 28.0294 37.547 27.8109L39.8377 20.0104L42.1284 27.8135C41.3843 28.0312 40.613 28.1412 39.8377 28.1404Z" fill="#94A3B8"/>
<path d="M88.8642 16.4995H83.3737L77.1406 34.3742H81.9017L82.7853 31.3638C84.9616 32.0028 87.2757 32.0028 89.4519 31.3638L90.3356 34.3742H95.0966L88.8642 16.4995ZM86.1189 28.1404C85.3436 28.1404 84.5722 28.0294 83.8282 27.8109L86.1189 20.0104L88.4097 27.8135C87.6656 28.0312 86.8942 28.1412 86.1189 28.1404Z" fill="#94A3B8"/>
<path d="M152.981 16.4995H147.491L141.258 34.3742H146.019L146.902 31.3638C149.079 32.0028 151.393 32.0028 153.569 31.3638L154.453 34.3742H159.214L152.981 16.4995ZM150.234 28.1404C149.459 28.1404 148.688 28.0294 147.944 27.8109L150.234 20.0104L152.525 27.8135C151.781 28.0312 151.01 28.1412 150.234 28.1404Z" fill="#94A3B8"/>
</g>
<defs>
<clipPath id="clip0_7355_124061">
<rect width="178" height="48" fill="white" transform="translate(0.5 0.647461)"/>
</clipPath>
</defs>
</svg>
