<svg width="136" height="49" viewBox="0 0 136 49" fill="none" xmlns="http://www.w3.org/2000/svg">
<g clip-path="url(#clip0_7355_124063)">
<path d="M27.616 17.3478C22.7353 17.3478 18.9217 21.0529 18.9217 26.0129C18.9217 30.9729 22.6389 34.6462 27.616 34.6462C32.5931 34.6462 36.375 30.9095 36.375 25.9812C36.375 21.0846 32.6577 17.3478 27.616 17.3478ZM27.6489 31.0717C24.8695 31.0717 22.8328 28.913 22.8328 26.0141C22.8328 23.0822 24.8366 20.9248 27.616 20.9248C30.4283 20.9248 32.4638 23.1152 32.4638 26.0141C32.4638 28.913 30.4283 31.0717 27.6489 31.0717ZM37.4409 21.1175H39.8652V34.3255H43.7435V17.6698H37.4409V21.1175ZM9.16141 20.9236C11.1981 20.9236 12.814 22.1798 13.4275 24.0481H17.5326C16.7886 20.054 13.4921 17.3478 9.19434 17.3478C4.3136 17.3478 0.5 21.0529 0.5 26.0141C0.5 30.9753 4.21726 34.6475 9.19434 34.6475C13.3958 34.6475 16.7569 31.9412 17.5008 27.9142H13.4275C12.8457 29.7826 11.2298 31.0717 9.19314 31.0717C6.38079 31.0717 4.40994 28.913 4.40994 26.0141C4.41117 23.0822 6.3503 20.9236 9.16141 20.9236ZM111.13 24.403L108.286 23.9847C106.929 23.792 105.959 23.3408 105.959 22.2773C105.959 21.1175 107.22 20.5382 108.932 20.5382C110.807 20.5382 112.003 21.3431 112.262 22.6639H116.011C115.59 19.3137 113.004 17.349 109.03 17.349C104.925 17.349 102.21 19.443 102.21 22.4066C102.21 25.2409 103.988 26.8849 107.575 27.3995L110.419 27.8178C111.809 28.0105 112.585 28.5593 112.585 29.5899C112.585 30.9107 111.228 31.4583 109.353 31.4583C107.058 31.4583 105.765 30.5241 105.571 29.1069H101.757C102.114 32.3607 104.666 34.6475 109.32 34.6475C113.555 34.6475 116.366 32.7144 116.366 29.396C116.366 26.4324 114.33 24.886 111.13 24.403ZM41.8044 10.8084C40.3824 10.8084 39.3155 11.839 39.3155 13.2561C39.3155 14.6733 40.3812 15.7038 41.8044 15.7038C43.2264 15.7038 44.2936 14.6733 44.2936 13.2561C44.2936 11.839 43.2264 10.8084 41.8044 10.8084ZM98.7196 23.3725C98.7196 19.765 96.5221 17.349 91.868 17.349C87.4726 17.349 85.0163 19.5723 84.5311 22.9871H88.3775C88.5714 21.6663 89.6056 20.5711 91.8035 20.5711C93.7756 20.5711 94.745 21.4407 94.745 22.5042C94.745 23.8896 92.9667 24.2433 90.7692 24.4689C87.7959 24.7908 84.1115 25.8214 84.1115 29.6874C84.1115 32.684 86.342 34.6157 89.8974 34.6157C92.6765 34.6157 94.4217 33.4559 95.2951 31.6193C95.4245 33.262 96.6526 34.3255 98.366 34.3255H100.628V30.879H98.7207V23.3725H98.7196ZM94.9059 27.5605C94.9059 29.7838 92.9667 31.4265 90.6069 31.4265C89.1522 31.4265 87.9241 30.8143 87.9241 29.5265C87.9241 27.8837 89.8959 27.4325 91.706 27.2398C93.4512 27.0788 94.4206 26.6922 94.9059 25.9507V27.5605ZM74.3184 17.3478C72.1524 17.3478 70.3426 18.2503 69.05 19.7638V10.6475H65.1717V34.3255H68.9851V32.1351C70.2777 33.7133 72.1209 34.6475 74.3184 34.6475C78.9721 34.6475 82.4956 30.9753 82.4956 26.0141C82.4956 21.0529 78.9076 17.3478 74.3184 17.3478ZM73.7367 31.0717C70.9572 31.0717 68.9206 28.913 68.9206 26.0141C68.9206 23.1152 70.9891 20.9248 73.7682 20.9248C76.5807 20.9248 78.5514 23.0835 78.5514 26.0141C78.5514 28.913 76.5159 31.0717 73.7367 31.0717ZM55.8954 17.3478C53.3746 17.3478 51.7257 18.3783 50.7564 19.8284V17.6698H46.9096V34.3243H50.7879V25.2726C50.7879 22.7273 52.4037 20.9236 54.7955 20.9236C57.026 20.9236 58.415 22.5017 58.415 24.7896V34.3255H62.2932V24.5006C62.2947 20.3114 60.1299 17.3478 55.8954 17.3478ZM134.853 25.4665C134.853 20.6992 131.363 17.349 126.676 17.349C121.699 17.349 118.046 21.0858 118.046 26.0141C118.046 31.2009 121.957 34.6475 126.741 34.6475C130.781 34.6475 133.948 32.2632 134.756 28.8813H130.715C130.133 30.3631 128.711 31.2009 126.804 31.2009C124.315 31.2009 122.44 29.6545 122.021 26.9483H134.852V25.4665H134.853ZM122.247 24.1774C122.862 21.8578 124.607 20.7309 126.611 20.7309C128.809 20.7309 130.49 21.987 130.877 24.1774H122.247Z" fill="#94A3B8"/>
</g>
<defs>
<clipPath id="clip0_7355_124063">
<rect width="135" height="48" fill="white" transform="translate(0.5 0.647461)"/>
</clipPath>
</defs>
</svg>
