<svg viewBox="0 0 46 46" version="1.1" xmlns="http://www.w3.org/2000/svg" xmlns:xlink="http://www.w3.org/1999/xlink" fill="#000000"><g id="SVGRepo_bgCarrier" stroke-width="0"></g><g id="SVGRepo_tracerCarrier" stroke-linecap="round" stroke-linejoin="round"></g><g id="SVGRepo_iconCarrier"> <title>Dribbble-color</title> <desc>Created with Sketch.</desc> <defs> </defs> <g id="Icons" stroke="none" stroke-width="1" fill="none" fill-rule="evenodd"> <g id="Color-" transform="translate(-601.000000, -161.000000)" fill="#EC4989"> <path d="M634.977303,200.290258 C634.777151,199.105709 633.730405,193.33982 631.152761,186.262273 C637.495443,185.248104 642.988828,186.987066 643.394543,187.119584 C642.520903,192.593392 639.386076,197.312658 634.977303,200.290258 L634.977303,200.290258 L634.977303,200.290258 Z M624.001352,203.643777 C619.246369,203.643777 614.886282,201.953495 611.486388,199.140867 C611.746046,199.351814 611.927265,199.484332 611.927265,199.484332 C611.927265,199.484332 615.692303,191.27362 627.341742,187.21424 C627.385018,187.198013 627.430999,187.187195 627.474275,187.173673 C630.238549,194.353989 631.377256,200.368687 631.669371,202.086013 C629.313518,203.08666 626.719645,203.643777 624.001352,203.643777 L624.001352,203.643777 L624.001352,203.643777 Z M604.356618,183.998648 C604.356618,183.790405 604.367437,183.584867 604.372846,183.379329 C604.721762,183.387442 614.426471,183.606502 624.539601,180.580222 C625.102193,181.680934 625.640442,182.803281 626.13271,183.920219 C625.873052,183.990534 625.616099,184.068963 625.359146,184.155506 C614.759158,187.57934 609.382078,197.115233 609.382078,197.115233 C609.382078,197.115233 609.390192,197.123346 609.390192,197.126051 C606.260775,193.645423 604.356618,189.045153 604.356618,183.998648 L604.356618,183.998648 L604.356618,183.998648 Z M615.619274,166.238521 C615.881637,166.587395 619.514141,171.512199 622.914035,177.553942 C613.482507,180.060968 605.295173,179.960903 604.778562,179.95279 C606.052508,173.867776 610.139413,168.823976 615.619274,166.238521 L615.619274,166.238521 L615.619274,166.238521 Z M619.295055,164.929567 C619.295055,164.932271 619.29235,164.934976 619.29235,164.934976 C619.29235,164.934976 619.268007,164.940385 619.232845,164.945793 C619.254483,164.940385 619.273417,164.93768 619.295055,164.929567 L619.295055,164.929567 L619.295055,164.929567 Z M636.973423,169.262097 C636.924737,169.335117 634.128006,173.594626 626.711531,176.372097 C623.354913,170.203245 619.665608,165.302781 619.370788,164.91334 C620.855706,164.553648 622.405539,164.358928 624.001352,164.358928 C628.972717,164.358928 633.514024,166.214181 636.973423,169.262097 L636.973423,169.262097 L636.973423,169.262097 Z M643.637973,183.803927 C643.353972,183.741725 636.705651,182.311071 629.957253,183.160268 C629.816605,182.824916 629.678662,182.48686 629.532604,182.148804 C629.124184,181.186019 628.683307,180.234053 628.226201,179.298313 C635.983477,176.131401 639.131828,171.579811 639.169695,171.525722 C641.923149,174.871127 643.591992,179.144159 643.637973,183.803927 L643.637973,183.803927 L643.637973,183.803927 Z M646.53478,179.371333 C646.231846,177.894703 645.777445,176.437004 645.19051,175.046916 C644.617099,173.683873 643.900335,172.36951 643.069971,171.14169 C642.250426,169.924687 641.303757,168.778 640.265126,167.739491 C639.22379,166.698277 638.079673,165.754424 636.859822,164.932271 C635.631857,164.0993 634.31734,163.38803 632.954137,162.809277 C631.563885,162.225116 630.10872,161.770768 628.631916,161.470574 C627.117246,161.159563 625.559299,161 624.001352,161 C622.440701,161 620.882754,161.159563 619.368084,161.470574 C617.89128,161.770768 616.436115,162.225116 615.045863,162.809277 C613.68266,163.38803 612.368143,164.0993 611.137473,164.932271 C609.920327,165.754424 608.77621,166.698277 607.734874,167.739491 C606.696243,168.778 605.752278,169.924687 604.930029,171.14169 C604.099665,172.36951 603.382901,173.683873 602.80949,175.046916 C602.219851,176.437004 601.768154,177.894703 601.46522,179.371333 C601.156877,180.883121 601,182.440884 601,183.998648 C601,185.56182 601.156877,187.119584 601.46522,188.634076 C601.768154,190.110706 602.219851,191.565701 602.80949,192.953084 C603.382901,194.316127 604.099665,195.635899 604.930029,196.863719 C605.752278,198.080722 606.696243,199.222 607.734874,200.265918 C608.77621,201.304427 609.920327,202.245576 611.137473,203.070433 C612.368143,203.9007 613.68266,204.614675 615.045863,205.190723 C616.436115,205.780293 617.89128,206.229232 619.368084,206.529426 C620.882754,206.843142 622.440701,207 624.001352,207 C625.559299,207 627.117246,206.843142 628.631916,206.529426 C630.10872,206.229232 631.563885,205.780293 632.954137,205.190723 C634.31734,204.614675 635.631857,203.9007 636.859822,203.070433 C638.079673,202.245576 639.22379,201.304427 640.265126,200.265918 C641.303757,199.222 642.250426,198.080722 643.069971,196.863719 C643.900335,195.635899 644.617099,194.316127 645.19051,192.953084 C645.777445,191.565701 646.231846,190.110706 646.53478,188.634076 C646.843123,187.119584 647,185.56182 647,183.998648 C647,182.440884 646.843123,180.883121 646.53478,179.371333 L646.53478,179.371333 L646.53478,179.371333 Z" id="Dribbble"> </path> </g> </g> </g></svg>