<svg width="136" height="49" viewBox="0 0 136 49" fill="none" xmlns="http://www.w3.org/2000/svg">
<g clip-path="url(#clip0_7355_124064)">
<path d="M0.5 2.64746H29.6427V17.2188H15.0713L0.5 2.64746ZM0.5 17.2188H15.0713L29.6427 31.7901H0.5V17.2188ZM0.5 31.7901H15.0713V46.3615L0.5 31.7901Z" fill="#94A3B8"/>
<path d="M46.0859 14.1428H57.8659V17.8862H50.5446V23.0882H57.8659V26.7488H50.5446V33.4095H46.0859V14.1428ZM60.2879 20.1428H64.4993V22.9228C64.7193 21.9675 65.1693 21.2342 65.8479 20.7208C66.5439 20.1882 67.3166 19.9228 68.1599 19.9228C68.6006 19.9228 68.9679 19.9602 69.2606 20.0328V23.9415C68.8406 23.8908 68.4179 23.8635 67.9946 23.8588C66.8386 23.8588 65.9679 24.2342 65.3799 24.9868C64.7939 25.7208 64.4993 26.8215 64.4993 28.2902V33.4095H60.2899V20.1428H60.2879ZM75.9086 33.7675C74.6246 33.7675 73.5046 33.4642 72.5506 32.8588C71.6146 32.2535 70.8706 31.3942 70.4039 30.3815C69.9086 29.3182 69.6593 28.1148 69.6593 26.7762C69.6593 25.4548 69.9179 24.2615 70.4313 23.1982C70.9126 22.1708 71.6766 21.3022 72.6333 20.6935C73.6046 20.0882 74.7153 19.7848 75.9639 19.7848C76.8993 19.7848 77.7353 19.9875 78.4686 20.3908C79.2019 20.7955 79.7526 21.3462 80.1199 22.0422V20.1428H84.3033V33.4095H80.1199V31.5375C79.7526 32.1982 79.1839 32.7388 78.4133 33.1615C77.6426 33.5702 76.7813 33.7782 75.9086 33.7675ZM77.1199 30.2715C78.1286 30.2715 78.9086 29.9415 79.4593 29.2808C80.0099 28.6202 80.2853 27.7848 80.2853 26.7762C80.2853 25.7855 80.0099 24.9595 79.4593 24.2988C78.9086 23.6382 78.1286 23.3082 77.1199 23.3082C76.1646 23.3082 75.3953 23.6288 74.8079 24.2715C74.2393 24.9142 73.9546 25.7482 73.9546 26.7762C73.9546 27.8042 74.2393 28.6475 74.8079 29.3082C75.3953 29.9508 76.1659 30.2715 77.1199 30.2715ZM87.2486 20.1428H91.4599V22.0695C91.7546 21.3895 92.2306 20.8388 92.8906 20.4182C93.5706 19.9975 94.3593 19.7848 95.2579 19.7848C97.3499 19.7848 98.7359 20.6008 99.4139 22.2348C99.7873 21.4942 100.371 20.8815 101.093 20.4735C101.865 20.0088 102.752 19.7708 103.653 19.7848C106.791 19.7848 108.359 21.5822 108.359 25.1795V33.4095H104.121V25.9502C104.121 25.0522 103.955 24.3915 103.625 23.9688C103.295 23.5475 102.799 23.3355 102.139 23.3355C101.423 23.3355 100.873 23.5835 100.487 24.0788C100.102 24.5562 99.9093 25.3902 99.9093 26.5835V33.4095H95.6706V25.9228C95.6706 25.0242 95.5059 24.3722 95.1753 23.9688C94.8646 23.5475 94.3773 23.3355 93.7179 23.3355C92.9833 23.3355 92.4233 23.5835 92.0379 24.0788C91.6526 24.5562 91.4599 25.3902 91.4599 26.5835V33.4095H87.2499V20.1428H87.2486ZM124.179 26.0882C124.179 26.6562 124.142 27.2715 124.067 27.9322H114.271C114.308 28.7948 114.601 29.4542 115.151 29.9142C115.702 30.3722 116.447 30.6022 117.381 30.6022C118.684 30.6022 119.51 30.2068 119.858 29.4182H123.987C123.784 30.7215 123.069 31.7755 121.839 32.5835C120.629 33.3722 119.142 33.7675 117.381 33.7675C115.106 33.7675 113.317 33.1522 112.013 31.9228C110.729 30.6928 110.087 28.9782 110.087 26.7762C110.087 25.3448 110.38 24.1062 110.967 23.0602C111.535 22.0155 112.409 21.1702 113.472 20.6382C114.555 20.0702 115.812 19.7848 117.245 19.7848C118.601 19.7848 119.803 20.0508 120.849 20.5835C121.913 21.1162 122.73 21.8588 123.298 22.8128C123.886 23.7682 124.179 24.8595 124.179 26.0882ZM120.021 25.3175C120.003 24.4368 119.756 23.7662 119.278 23.3082C118.802 22.8502 118.113 22.6202 117.214 22.6202C116.315 22.6202 115.6 22.8675 115.067 23.3635C114.554 23.8408 114.288 24.4915 114.269 25.3175H120.021ZM126.036 20.1428H130.247V22.9228C130.467 21.9675 130.917 21.2342 131.596 20.7208C132.255 20.2022 133.069 19.9208 133.908 19.9228C134.348 19.9228 134.716 19.9602 135.009 20.0328V23.9415C134.589 23.8908 134.166 23.8635 133.743 23.8588C132.587 23.8588 131.716 24.2342 131.128 24.9868C130.54 25.7208 130.247 26.8215 130.247 28.2902V33.4095H126.036V20.1428Z" fill="#94A3B8"/>
</g>
<defs>
<clipPath id="clip0_7355_124064">
<rect width="135" height="48" fill="white" transform="translate(0.5 0.647461)"/>
</clipPath>
</defs>
</svg>
