<svg xmlns="http://www.w3.org/2000/svg" width="125" height="42" fill="none" viewBox="0 0 125 42">
  <g clip-path="url(#a)">
    <path fill="#E5E5E5" d="M53.362 21.539c0 5.83-4.56 10.125-10.158 10.125-5.597 0-10.157-4.296-10.157-10.125 0-5.871 4.56-10.126 10.157-10.126s10.158 4.255 10.158 10.126Zm-4.447 0c0-3.643-2.643-6.136-5.71-6.136-3.068 0-5.712 2.493-5.712 6.136 0 3.606 2.644 6.135 5.711 6.135 3.068 0 5.712-2.533 5.712-6.135Zm26.36 0c0 5.83-4.56 10.125-10.158 10.125-5.597 0-10.157-4.296-10.157-10.125 0-5.867 4.56-10.126 10.157-10.126s10.158 4.255 10.158 10.126Zm-4.447 0c0-3.643-2.643-6.136-5.71-6.136-3.068 0-5.712 2.493-5.712 6.136 0 3.606 2.644 6.135 5.711 6.135 3.068 0 5.712-2.533 5.712-6.135Zm25.447-9.514v18.178c0 7.478-4.41 10.532-9.623 10.532-4.908 0-7.862-3.282-8.976-5.966l3.872-1.612c.689 1.648 2.378 3.593 5.099 3.593 3.337 0 5.405-2.059 5.405-5.935V29.36h-.155c-.995 1.228-2.913 2.3-5.332 2.3-5.063 0-9.701-4.41-9.701-10.084 0-5.715 4.638-10.162 9.7-10.162 2.416 0 4.333 1.073 5.333 2.264h.155V12.03h4.223v-.004Zm-3.908 9.55c0-3.565-2.378-6.172-5.405-6.172-3.068 0-5.638 2.607-5.638 6.172 0 3.53 2.57 6.1 5.638 6.1 3.027 0 5.405-2.57 5.405-6.1Zm10.87-20.205v29.674H98.9V1.37h4.337Zm16.9 23.501 3.452 2.301c-1.114 1.648-3.799 4.488-8.437 4.488-5.752 0-10.048-4.447-10.048-10.126 0-6.021 4.333-10.125 9.551-10.125 5.254 0 7.824 4.181 8.664 6.441l.461 1.15-13.535 5.607c1.036 2.031 2.647 3.067 4.907 3.067 2.265 0 3.835-1.114 4.985-2.803Zm-10.623-3.643 9.048-3.757c-.497-1.265-1.995-2.146-3.757-2.146-2.26 0-5.405 1.995-5.291 5.903ZM16.63 18.905v-4.296h14.477c.141.748.214 1.634.214 2.593 0 3.223-.881 7.208-3.72 10.048-2.762 2.876-6.291 4.41-10.966 4.41C7.97 31.66.684 24.602.684 15.937.684 7.272 7.97.215 16.634.215c4.794 0 8.21 1.88 10.775 4.332l-3.032 3.031c-1.84-1.725-4.332-3.068-7.747-3.068-6.327 0-11.276 5.1-11.276 11.427 0 6.328 4.949 11.427 11.276 11.427 4.104 0 6.442-1.648 7.94-3.146 1.213-1.214 2.012-2.949 2.327-5.318l-10.267.005Z"/>
  </g>
  <defs>
    <clipPath id="a">
      <path fill="#fff" d="M.52 0h124.174v42H.52z"/>
    </clipPath>
  </defs>
</svg>