<svg width="114" height="49" viewBox="0 0 114 49" fill="none" xmlns="http://www.w3.org/2000/svg">
<g clip-path="url(#clip0_7355_124065)">
<path d="M48.7375 26.2976C48.7375 31.6208 44.5732 35.5434 39.4625 35.5434C34.3519 35.5434 30.1875 31.6208 30.1875 26.2976C30.1875 20.9368 34.3519 17.0518 39.4625 17.0518C44.5732 17.0518 48.7375 20.9368 48.7375 26.2976ZM44.6774 26.2976C44.6774 22.9711 42.2638 20.6951 39.4625 20.6951C36.6613 20.6951 34.2477 22.9711 34.2477 26.2976C34.2477 29.5907 36.6613 31.9001 39.4625 31.9001C42.2638 31.9001 44.6774 29.5866 44.6774 26.2976Z" fill="#94A3B8"/>
<path d="M68.7454 26.2976C68.7454 31.6208 64.581 35.5434 59.4703 35.5434C54.3597 35.5434 50.1953 31.6208 50.1953 26.2976C50.1953 20.941 54.3597 17.0518 59.4703 17.0518C64.581 17.0518 68.7454 20.9368 68.7454 26.2976ZM64.6852 26.2976C64.6852 22.9711 62.2716 20.6951 59.4703 20.6951C56.6691 20.6951 54.2555 22.9711 54.2555 26.2976C54.2555 29.5907 56.6691 31.9001 59.4703 31.9001C62.2716 31.9001 64.6852 29.5866 64.6852 26.2976Z" fill="#94A3B8"/>
<path d="M87.92 17.6103V34.2095C87.92 41.0376 83.8932 43.8263 79.1327 43.8263C74.6515 43.8263 71.9544 40.8292 70.9373 38.3781L74.4722 36.9066C75.1017 38.4114 76.6441 40.1872 79.1285 40.1872C82.1757 40.1872 84.0641 38.3072 84.0641 34.7681V33.4383H83.9223C83.0136 34.5597 81.2628 35.5393 79.0535 35.5393C74.4306 35.5393 70.1953 31.5125 70.1953 26.3309C70.1953 21.1119 74.4306 17.0518 79.0535 17.0518C81.2586 17.0518 83.0094 18.0314 83.9223 19.1194H84.0641V17.6145H87.92V17.6103ZM84.3517 26.3309C84.3517 23.0753 82.1799 20.6951 79.4161 20.6951C76.6149 20.6951 74.268 23.0753 74.268 26.3309C74.268 29.5532 76.6149 31.9001 79.4161 31.9001C82.1799 31.9001 84.3517 29.5532 84.3517 26.3309Z" fill="#94A3B8"/>
<path d="M94.2804 7.8811V34.9767H90.3203V7.8811H94.2804Z" fill="#94A3B8"/>
<path d="M109.711 29.3407L112.863 31.4416C111.846 32.9464 109.395 35.5393 105.159 35.5393C99.907 35.5393 95.9844 31.4791 95.9844 26.2934C95.9844 20.7951 99.9403 17.0476 104.705 17.0476C109.503 17.0476 111.85 20.866 112.617 22.9294L113.038 23.9799L100.678 29.0989C101.624 30.9539 103.096 31.9001 105.159 31.9001C107.227 31.9001 108.661 30.883 109.711 29.3407ZM100.011 26.0142L108.273 22.5834C107.819 21.4288 106.452 20.6242 104.843 20.6242C102.779 20.6242 99.907 22.4459 100.011 26.0142Z" fill="#94A3B8"/>
<path d="M15.2014 23.8922V19.9696H28.4198C28.549 20.6532 28.6157 21.4619 28.6157 22.3373C28.6157 25.2803 27.8112 28.9195 25.2184 31.5123C22.6964 34.1385 19.4741 35.5391 15.2055 35.5391C7.29363 35.5391 0.640625 29.0946 0.640625 21.1826C0.640625 13.2707 7.29363 6.82617 15.2055 6.82617C19.5825 6.82617 22.7006 8.54361 25.0433 10.7821L22.2754 13.55C20.5955 11.9743 18.3194 10.7488 15.2014 10.7488C9.42375 10.7488 4.90505 15.405 4.90505 21.1826C4.90505 26.9603 9.42375 31.6165 15.2014 31.6165C18.9489 31.6165 21.0832 30.1117 22.4505 28.7444C23.5593 27.6356 24.2888 26.0515 24.5764 23.888L15.2014 23.8922Z" fill="#94A3B8"/>
</g>
<defs>
<clipPath id="clip0_7355_124065">
<rect width="113" height="48" fill="white" transform="translate(0.5 0.647461)"/>
</clipPath>
</defs>
</svg>
