<svg width="146" height="49" viewBox="0 0 146 49" fill="none" xmlns="http://www.w3.org/2000/svg">
<g clip-path="url(#clip0_7355_124062)">
<path d="M11.3308 13.3881C17.2997 13.3881 22.1615 18.25 22.1615 24.2671C22.1615 30.2841 17.2997 35.146 11.3308 35.146C5.36181 35.146 0.5 30.3323 0.5 24.2671C0.5 18.2018 5.36181 13.3881 11.3308 13.3881ZM96.244 13.1475V32.2096C96.244 33.6537 96.8216 34.0388 97.9288 34.3276L97.9769 34.5683H91.8636V32.2096C91.1415 33.9425 89.6493 35.0015 87.7238 35.0015C84.4505 35.0015 82.2844 32.0171 82.2844 27.5885C82.2844 25.0854 83.0064 22.9674 84.3542 21.3788C85.6539 19.8385 87.435 19.0201 89.4086 19.0201C90.3713 19.0201 91.1897 19.2127 91.8636 19.6459V17.0465C91.8636 16.4689 91.7192 16.0838 91.4303 15.795C91.0452 15.458 90.4195 15.3136 89.4567 15.4099H89.4086V15.1692L96.244 13.1475ZM119.446 19.0683V32.2096C119.446 33.6537 120.024 34.0388 121.131 34.3276V34.5683H115.017V32.1615C114.295 33.8944 112.707 35.0015 110.926 35.0015C108.808 35.0015 107.46 34.0388 106.93 32.1615L106.834 31.6801C106.738 31.1987 106.69 30.7174 106.69 30.236V23.208C106.69 21.6677 106.353 21.1863 105.005 21.09H104.957V20.8493L111.07 19.0683V30.1397C111.07 31.7764 111.792 32.691 113.14 32.691C113.958 32.691 114.632 32.2578 115.017 31.5357V23.208C115.017 21.6195 114.729 21.1382 113.621 21.0419H113.573V20.8012L119.446 19.0683ZM75.3045 19.0201C76.9412 19.0201 78.5297 19.5978 79.5887 20.6087C80.7921 21.7639 81.4179 23.4487 81.466 25.663V25.7112H72.2719C72.0794 28.8882 74.053 31.4876 76.6524 31.5838C78.5297 31.7282 80.1663 30.573 81.0809 28.6956L81.3216 28.7919C80.7921 32.3059 78.7222 34.9534 75.112 34.9534C71.0204 34.9534 68.7098 31.5357 68.6135 27.2515V26.1444C68.8061 24.2671 69.3837 22.5823 70.3946 21.3307C71.0204 20.5605 71.7424 19.9829 72.6089 19.5978C73.3309 19.2127 74.3899 19.0201 75.2564 19.0201H75.3045ZM138.989 19.0683C141.589 19.0683 143.177 20.7049 143.177 23.4969V32.4503C143.177 33.5093 143.659 34.0388 144.862 34.3276H144.91V34.5683H138.749V23.6413C138.749 21.9083 138.123 21.0419 136.823 21.0419C135.764 21.0419 135.235 21.8121 134.946 22.486C134.994 22.8229 135.042 23.1599 135.042 23.4969V32.5947C135.042 33.7019 135.379 34.0869 136.342 34.3276H136.39V34.5683H130.662V23.6413C130.662 21.9083 129.988 21.0419 128.736 21.0419C127.725 21.0419 127.196 21.7639 126.955 22.3416V32.6428C126.955 33.75 127.292 34.1351 128.255 34.3758H128.303V34.6165H122.575V23.1599C122.575 21.6195 122.19 21.1382 120.89 21.0419H120.842V20.8012L126.955 19.1164V21.6677C127.581 20.031 129.025 19.0683 130.854 19.0683C132.924 19.0683 134.368 20.0792 134.85 21.9083C135.475 20.1754 137.064 19.0683 138.989 19.0683ZM51.188 14.1102L56.9163 27.5404L62.6446 14.1102H68.8061L68.7579 14.3509L68.688 14.3664C67.6265 14.6084 67.0731 15.0053 67.0731 16.3245V32.691C67.1694 33.75 67.7471 34.0869 68.7579 34.3276H68.8061V34.5683H60.9598V34.3276H61.0079C62.0188 34.0869 62.5964 33.75 62.6927 32.691V16.7577L55.1352 34.5202H54.702L47.3371 17.2391V32.3059C47.3371 33.6537 47.9147 34.0388 49.0219 34.2795H49.07V34.5202H44.5451V34.2795H44.5933C45.7004 34.0388 46.2781 33.6537 46.2781 32.3059V16.3245C46.2781 14.9767 45.7004 14.5916 44.5933 14.3509H44.5451V14.1102H51.188ZM103.705 19.0683V32.2096L103.706 32.2985C103.73 33.6697 104.306 34.0448 105.39 34.3276L105.438 34.5683H99.3248V23.208C99.3248 21.6677 98.9878 21.1863 97.64 21.09H97.5919V20.8493L103.705 19.0683ZM28.66 14.0139C31.5963 14.0139 34.0513 18.6351 34.0513 24.2671C34.0513 29.9472 31.6445 34.5202 28.66 34.5202C25.6755 34.5202 23.2687 29.9472 23.2687 24.2671C23.2687 18.5869 25.6755 14.0139 28.66 14.0139ZM36.9395 15.0729C38.0467 15.0729 38.865 19.2127 38.865 24.2671C38.865 29.3214 37.9985 33.4612 36.9395 33.4612C35.8911 33.4612 35.0314 29.4038 35.0143 24.4184L35.0141 24.2671C35.0141 19.2127 35.8805 15.0729 36.9395 15.0729ZM90.1306 19.8866C88.2052 19.8866 87.0018 22.4379 87.0018 26.3851C87.0018 28.2624 87.3387 29.8991 87.9164 31.0062C88.4459 32.0652 89.216 32.6428 90.0825 32.6428C90.949 32.6428 91.5747 32.2578 91.8636 31.5357V20.9456C91.5266 20.2717 90.9008 19.8866 90.1306 19.8866ZM75.2564 19.9347C73.5235 19.9347 72.5126 22.0046 72.3682 24.8928V24.941H77.6151C77.7114 22.6785 77.3263 21.1863 76.6042 20.4642C76.2191 20.1273 75.7859 19.9347 75.2564 19.9347ZM101.347 13.2919C102.742 13.2919 103.801 14.3509 103.801 15.7468C103.801 17.1428 102.742 18.2018 101.347 18.2018C99.9505 18.2018 98.8915 17.1428 98.8915 15.7468C98.8915 14.3509 99.9505 13.2919 101.347 13.2919Z" fill="#94A3B8"/>
</g>
<defs>
<clipPath id="clip0_7355_124062">
<rect width="145" height="48" fill="white" transform="translate(0.5 0.647461)"/>
</clipPath>
</defs>
</svg>
