<svg xmlns="http://www.w3.org/2000/svg" width="225" height="42" fill="none" viewBox="0 0 225 42">
  <g clip-path="url(#a)">
    <path fill="#E5E5E5" d="M225 18.991v-3.475h-4.914v-5.404l-.165.045-4.616 1.24-.091.024v4.095h-7.284v-2.281c0-1.062.27-1.875.803-2.417.529-.536 1.286-.808 2.251-.808a5.86 5.86 0 0 1 2.135.427l.182.071v-3.66l-.086-.028c-.674-.213-1.591-.32-2.729-.32-1.433 0-2.735.274-3.871.817-1.136.543-2.03 1.32-2.656 2.307-.624.985-.941 2.124-.941 3.384v2.508h-3.422v3.475h3.422v14.644h4.912V18.992h7.284v9.305c0 3.833 2.058 5.775 6.117 5.775.667 0 1.369-.069 2.086-.203.729-.138 1.226-.276 1.519-.423l.064-.034v-3.508l-.2.116a3.684 3.684 0 0 1-.987.378 4.237 4.237 0 0 1-.971.145c-.95 0-1.654-.225-2.09-.669-.442-.448-.666-1.232-.666-2.328v-8.555H225Zm-36.373 11.553c-1.782 0-3.188-.52-4.179-1.542-.996-1.028-1.501-2.494-1.501-4.356 0-1.922.505-3.425 1.502-4.472.991-1.039 2.383-1.566 4.138-1.566 1.704 0 3.059.503 4.03 1.498.976 1 1.472 2.491 1.472 4.435 0 1.967-.466 3.479-1.384 4.49-.913 1.003-2.284 1.513-4.078 1.513Zm.219-15.465c-3.402 0-6.103.876-8.029 2.602-1.925 1.727-2.901 4.117-2.901 7.104 0 2.837.952 5.119 2.832 6.781 1.879 1.663 4.436 2.505 7.6 2.505 3.297 0 5.945-.887 7.871-2.638 1.925-1.748 2.9-4.116 2.9-7.033 0-2.881-.915-5.18-2.721-6.831-1.807-1.652-4.348-2.49-7.552-2.49Zm-18.85 0c-2.313 0-4.227.52-5.689 1.545-1.471 1.031-2.217 2.383-2.217 4.02 0 .85.161 1.606.478 2.247.319.643.812 1.209 1.468 1.684.65.472 1.655.965 2.985 1.467 1.119.405 1.953.747 2.483 1.016.518.265.886.53 1.094.789.201.253.304.6.304 1.027 0 1.217-1.038 1.81-3.174 1.81-.792 0-1.695-.146-2.685-.432a10.688 10.688 0 0 1-2.75-1.225l-.204-.128v4.154l.075.03c.695.282 1.572.52 2.604.707 1.031.187 1.968.282 2.781.282 2.511 0 4.533-.522 6.008-1.553 1.485-1.038 2.237-2.423 2.237-4.116 0-1.221-.405-2.268-1.203-3.113-.793-.838-2.169-1.607-4.089-2.287-1.529-.54-2.509-.987-2.913-1.33-.39-.332-.588-.802-.588-1.396 0-.527.245-.95.746-1.291.505-.344 1.208-.518 2.09-.518.819 0 1.656.113 2.489.336.832.222 1.563.52 2.173.885l.2.12v-3.94l-.077-.03c-.562-.211-1.305-.393-2.206-.54a15.283 15.283 0 0 0-2.42-.22Zm-20.711 15.465c-1.782 0-3.188-.52-4.179-1.542-.997-1.028-1.501-2.494-1.501-4.356 0-1.922.505-3.425 1.502-4.472.991-1.039 2.383-1.566 4.139-1.566 1.702 0 3.058.503 4.029 1.498.976 1 1.472 2.491 1.472 4.435 0 1.967-.466 3.479-1.385 4.49-.912 1.003-2.283 1.513-4.077 1.513Zm.219-15.465c-3.402 0-6.104.876-8.029 2.602-1.925 1.727-2.902 4.117-2.902 7.104 0 2.838.954 5.119 2.833 6.781 1.879 1.663 4.436 2.505 7.6 2.505 3.297 0 5.945-.887 7.871-2.638 1.925-1.748 2.9-4.116 2.9-7.033 0-2.881-.915-5.18-2.722-6.831-1.807-1.652-4.348-2.49-7.551-2.49Zm-18.387 3.575v-3.138h-4.852v18.119h4.852v-9.269c0-1.576.407-2.87 1.21-3.849.792-.966 1.848-1.456 3.138-1.456.437 0 .927.064 1.459.189.526.124.906.26 1.131.402l.204.13v-4.297l-.079-.03c-.451-.169-1.091-.254-1.899-.254-1.22 0-2.311.344-3.245 1.022-.821.596-1.414 1.412-1.867 2.43h-.052Zm-13.541-3.575c-2.226 0-4.211.42-5.9 1.246-1.692.828-3.001 2.011-3.891 3.515-.887 1.5-1.337 3.253-1.337 5.207 0 1.712.436 3.283 1.299 4.668.863 1.387 2.085 2.472 3.631 3.224 1.544.752 3.328 1.133 5.304 1.133 2.306 0 4.275-.405 5.853-1.204l.064-.032v-3.904l-.204.13a9.62 9.62 0 0 1-2.374 1.086c-.857.263-1.639.396-2.325.396-1.904 0-3.432-.523-4.541-1.555-1.112-1.033-1.676-2.484-1.676-4.31 0-1.836.588-3.324 1.747-4.422 1.155-1.094 2.686-1.65 4.55-1.65 1.595 0 3.149.475 4.619 1.412l.204.13v-4.115l-.066-.032c-.553-.272-1.308-.497-2.244-.667a15.203 15.203 0 0 0-2.713-.256Zm-14.47.437h-4.852v18.119h4.852v-18.12Zm-2.376-7.719c-.799 0-1.495.239-2.067.712-.575.475-.866 1.072-.866 1.777 0 .694.288 1.28.857 1.743.565.46 1.264.694 2.076.694s1.514-.234 2.086-.694c.576-.462.868-1.049.868-1.743 0-.68-.284-1.272-.844-1.758-.56-.485-1.27-.731-2.11-.731Zm-12.106 6.382v19.456h4.952V8.352h-6.853l-8.712 18.78-8.453-18.78h-7.132v25.282h4.653V14.177h.16l8.926 19.458h3.512l8.787-19.456h.16Zm-65.799 5.774H0V-.097h22.825v20.05Zm25.201 0H25.202V-.097h22.824v20.05ZM22.824 42.099H0v-20.05h22.824v20.05Zm25.202 0H25.202v-20.05h22.824v20.05Z"/>
  </g>
  <defs>
    <clipPath id="a">
      <path fill="#fff" d="M0 0h225v42H0z"/>
    </clipPath>
  </defs>
</svg>
