<svg xmlns="http://www.w3.org/2000/svg" fill="none" viewBox="0 0 350 64">

<g clip-path="url(#clip0_174_4480)"><path d="M54.2702 37.8403L45.4102 47.3503C45.2151 47.5546 44.9809 47.7175 44.7214 47.8292C44.462 47.9409 44.1826 47.9991 43.9002 48.0003H1.90017C1.69388 48.0146 1.48823 47.9646 1.31155 47.8571C1.13486 47.7497 0.995814 47.5901 0.913564 47.4004C0.831315 47.2107 0.809902 47.0001 0.852276 46.7977C0.894649 46.5954 0.998725 46.4111 1.15017 46.2703L10.0002 36.7703C10.1933 36.5627 10.4269 36.3971 10.6867 36.2835C10.9464 36.17 11.2267 36.111 11.5102 36.1103H53.5102C53.7173 36.0937 53.9245 36.142 54.1029 36.2485C54.2813 36.3551 54.4221 36.5146 54.5057 36.7049C54.5893 36.8951 54.6115 37.1067 54.5693 37.3102C54.5271 37.5137 54.4225 37.699 54.2702 37.8403ZM45.4102 18.7103C45.2166 18.5041 44.9826 18.3399 44.7228 18.2281C44.463 18.1163 44.183 18.0592 43.9002 18.0603H1.90017C1.69388 18.046 1.48823 18.096 1.31155 18.2034C1.13486 18.3108 0.995814 18.4704 0.913564 18.6601C0.831315 18.8498 0.809902 19.0604 0.852276 19.2628C0.894649 19.4652 0.998725 19.6495 1.15017 19.7903L10.0002 29.2903C10.1938 29.4965 10.4277 29.6606 10.6875 29.7724C10.9473 29.8843 11.2273 29.9414 11.5102 29.9403H53.5102C53.7173 29.9569 53.9245 29.9086 54.1029 29.802C54.2813 29.6955 54.4221 29.536 54.5057 29.3457C54.5893 29.1554 54.6115 28.9438 54.5693 28.7404C54.5271 28.5369 54.4225 28.3516 54.2702 28.2103L45.4102 18.7103ZM1.90017 11.8903H43.9002C44.1836 11.8895 44.4639 11.8305 44.7237 11.717C44.9834 11.6035 45.2171 11.4378 45.4102 11.2303L54.2702 1.73028C54.4225 1.58896 54.5271 1.40368 54.5693 1.2002C54.6115 0.996712 54.5893 0.785131 54.5057 0.594865C54.4221 0.404598 54.2813 0.245099 54.1029 0.138539C53.9245 0.031979 53.7173 -0.0163481 53.5102 0.000275547H11.5102C11.2277 0.00149481 10.9484 0.059689 10.6889 0.171375C10.4295 0.283062 10.1952 0.445944 10.0002 0.650276L1.15017 10.1603C0.998725 10.3011 0.894649 10.4854 0.852276 10.6877C0.809902 10.8901 0.831315 11.1007 0.913564 11.2904C0.995814 11.4801 1.13486 11.6397 1.31155 11.7471C1.48823 11.8546 1.69388 11.9046 1.90017 11.8903Z" fill="url(#paint0_linear_174_4480)"></path><path d="M105.47 20.3001H83V12.9001H111.31V5.50011H82.93C81.9595 5.49484 80.9975 5.68078 80.0989 6.0473C79.2003 6.41383 78.3827 6.95376 77.6927 7.63627C77.0028 8.31879 76.454 9.13051 76.0778 10.0251C75.7016 10.9197 75.5052 11.8796 75.5 12.8501V20.3501C75.5052 21.3206 75.7016 22.2805 76.0778 23.1751C76.454 24.0697 77.0028 24.8814 77.6927 25.5639C78.3827 26.2465 79.2003 26.7864 80.0989 27.1529C80.9975 27.5194 81.9595 27.7054 82.93 27.7001H105.42V35.1001H76V42.5001H105.44C106.41 42.5054 107.372 42.3194 108.27 41.9527C109.168 41.5861 109.985 41.046 110.674 40.3633C111.363 39.6807 111.911 38.8689 112.286 37.9744C112.661 37.0798 112.856 36.1201 112.86 35.1501V27.6501C112.852 25.6963 112.07 23.8253 110.684 22.4475C109.299 21.0697 107.424 20.2974 105.47 20.3001Z" fill="white"></path><path d="M149 5.50024H126.45C125.478 5.49234 124.514 5.67632 123.613 6.04166C122.712 6.407 121.892 6.94652 121.2 7.62929C120.508 8.31207 119.957 9.12469 119.58 10.0206C119.202 10.9165 119.005 11.8781 119 12.8502V35.1502C119.005 36.1207 119.202 37.0807 119.578 37.9752C119.954 38.8698 120.503 39.6816 121.193 40.3641C121.883 41.0466 122.7 41.5865 123.599 41.953C124.498 42.3196 125.46 42.5055 126.43 42.5002H149C149.97 42.5055 150.932 42.3195 151.83 41.9529C152.728 41.5862 153.545 41.0461 154.234 40.3635C154.923 39.6808 155.471 38.869 155.846 37.9745C156.221 37.08 156.416 36.1202 156.42 35.1502V12.8502C156.416 11.8802 156.221 10.9205 155.846 10.026C155.471 9.13146 154.923 8.31966 154.234 7.63701C153.545 6.95437 152.728 6.41428 151.83 6.04764C150.932 5.68099 149.97 5.49498 149 5.50024ZM148.95 35.1002H126.5V12.9002H148.94L148.95 35.1002Z" fill="white"></path><path d="M228 5.4997H206C205.03 5.49443 204.068 5.68037 203.169 6.0469C202.271 6.41342 201.453 6.95335 200.763 7.63587C200.073 8.31838 199.524 9.13011 199.148 10.0247C198.772 10.9193 198.576 11.8792 198.57 12.8497V42.4997H206.05V30.3397H228V42.4997H235.48V12.8497C235.476 11.8746 235.279 10.9099 234.9 10.0114C234.522 9.11296 233.968 8.29847 233.273 7.61503C232.577 6.9316 231.753 6.39277 230.848 6.02969C229.943 5.66662 228.975 5.48648 228 5.4997ZM228 22.9397H206.1V12.9397H228V22.9397Z" fill="white"></path><path d="M315.57 5.50011H293.57C292.599 5.49484 291.637 5.68078 290.739 6.0473C289.84 6.41383 289.022 6.95376 288.332 7.63627C287.642 8.31879 287.094 9.13051 286.717 10.0251C286.341 10.9197 286.145 11.8796 286.14 12.8501V42.5001H293.62V30.3401H315.52V42.5001H323V12.8501C322.994 11.8796 322.798 10.9197 322.422 10.0251C322.046 9.13051 321.497 8.31879 320.807 7.63627C320.117 6.95376 319.299 6.41383 318.401 6.0473C317.502 5.68078 316.54 5.49484 315.57 5.50011ZM315.52 22.9401H293.62V12.9401H315.52V22.9401Z" fill="white"></path><path d="M272 35.1H269L258.29 8.58004C257.919 7.66757 257.284 6.88678 256.466 6.33796C255.648 5.78914 254.685 5.49734 253.7 5.50004H247C245.694 5.49472 244.439 6.00767 243.511 6.92631C242.583 7.84496 242.058 9.09426 242.05 10.4V42.5H249.53V12.9H252.53L263.25 39.42C263.628 40.3294 264.266 41.1068 265.085 41.6548C265.903 42.2027 266.865 42.4968 267.85 42.5H274.5C275.151 42.5106 275.798 42.3919 276.403 42.1506C277.007 41.9094 277.558 41.5504 278.023 41.0946C278.489 40.6388 278.859 40.0952 279.112 39.4953C279.365 38.8955 279.497 38.2512 279.5 37.6V5.50004H272V35.1Z" fill="white"></path><path d="M170.55 5.5H163.07V35.15C163.076 36.1205 163.272 37.0804 163.648 37.975C164.024 38.8696 164.573 39.6813 165.263 40.3638C165.953 41.0463 166.771 41.5863 167.669 41.9528C168.568 42.3193 169.53 42.5053 170.5 42.5H193V35.1H170.55V5.5Z" fill="white"></path></g>



<defs><linearGradient id="paint0_linear_174_4480" x1="5.40017" y1="49.1403" x2="49.4502" y2="-0.509725" gradientUnits="userSpaceOnUse"><stop offset="0.08" stop-color="#9945FF"></stop><stop offset="0.3" stop-color="#8752F3"></stop><stop offset="0.5" stop-color="#5497D5"></stop><stop offset="0.6" stop-color="#43B4CA"></stop><stop offset="0.72" stop-color="#28E0B9"></stop><stop offset="0.97" stop-color="#19FB9B"></stop></linearGradient><clipPath id="clip0_174_4480"><rect width="323" height="48" fill="white"></rect></clipPath></defs></svg>