<svg xmlns="http://www.w3.org/2000/svg" width="225" height="42" fill="none" viewBox="0 0 225 42">
  <g clip-path="url(#a)">
    <path fill="#E5E5E5" d="M76.291 23.003h8.472c1.191 0 2.156.975 2.156 2.166a2.158 2.158 0 0 1-2.156 2.167H74.545a.643.643 0 0 0-.43.164l-3.081 2.66c-.473.41-.185 1.18.43 1.18H84.25s.01 0 .01-.01.01-.01.01-.01c.164.01.319.02.483.02 3.388 0 6.14-2.762 6.14-6.17 0-3.236-2.474-5.895-5.637-6.152 0 0-.01 0-.01-.01s0-.01-.01-.01h-9.12a2.165 2.165 0 0 1-2.156-2.167c0-1.202.965-2.167 2.157-2.167h10.197a.673.673 0 0 0 .452-.175l2.864-2.66c.452-.42.155-1.17-.451-1.17H76.127c-3.389 0-6.141 2.762-6.141 6.172 0 3.41 2.752 6.172 6.14 6.172h.165Zm49.312-12.354a.669.669 0 0 0-.668.678v19.346c0 .37.298.678.668.678h15.506a.703.703 0 0 0 .493-.215l1.941-2.085c.4-.431.102-1.14-.493-1.14h-13.535a.668.668 0 0 1-.667-.678V11.316a.675.675 0 0 0-.668-.677h-2.577v.01Z"/>
    <path fill="#E5E5E5" fill-rule="evenodd" d="M100.772 10.649c0 .01 0 .01 0 0a3.854 3.854 0 0 0-3.666 3.666V27.49a3.825 3.825 0 0 0 3.666 3.83h14.069a3.847 3.847 0 0 0 3.666-3.83V14.326a3.83 3.83 0 0 0-3.656-3.667h-14.079v-.01Zm2.629 3.676c-.01 0-.01 0 0 0a2.403 2.403 0 0 0-2.29 2.31v8.288c0 1.294 1.017 2.362 2.29 2.413h8.821c1.274-.051 2.29-1.12 2.29-2.413v-8.287a2.41 2.41 0 0 0-2.29-2.31h-8.821Zm62.682 16.348c0 .37.298.678.667.678h2.629c.37 0 .668-.298.668-.678V14.5c0-2.064-1.613-3.748-3.625-3.83h-13.668c-2.095 0-3.789 1.714-3.789 3.84v16.174c0 .37.297.677.667.677h2.629c.37 0 .667-.297.667-.677v-6.665c0-.37.298-.678.668-.678h11.85c.37 0 .668.298.668.678v6.654h-.031Zm-13.175-11.018v-3.327c0-1.294 1.037-2.342 2.31-2.342h8.565c1.273 0 2.31 1.048 2.31 2.342v3.327c0 .37-.298.677-.667.677h-11.851a.668.668 0 0 1-.667-.677Zm68.679 11.696a.669.669 0 0 1-.668-.678V24.01a.675.675 0 0 0-.667-.678h-11.984a.669.669 0 0 0-.668.678v6.664c0 .37-.298.678-.667.678h-2.65a.668.668 0 0 1-.667-.678V14.5a3.84 3.84 0 0 1 3.83-3.84h13.812a3.847 3.847 0 0 1 3.666 3.83v16.174a.675.675 0 0 1-.668.677h-2.669v.01ZM207.6 16.328v3.327c0 .37.298.677.668.677h11.984a.668.668 0 0 0 .667-.677v-3.327a2.338 2.338 0 0 0-2.331-2.342h-8.657a2.331 2.331 0 0 0-2.331 2.342Z" clip-rule="evenodd"/>
    <path fill="#E5E5E5" d="M179.946 10.649c.195 0 .38.082.503.236l11.789 14.058c.4.473 1.171.185 1.171-.441V11.327c0-.37.297-.678.667-.678h2.629c.37 0 .667.298.667.678v19.346c0 .37-.297.678-.667.678h-3.266c-.01 0-.02-.01-.02-.02s0-.01-.01-.021l-11.995-13.955c-.4-.473-1.17-.175-1.17.441v12.888c0 .37-.298.677-.668.677h-2.649a.669.669 0 0 1-.668-.677V11.327c0-.37.298-.678.668-.678h3.019ZM8.855 32.06a1.74 1.74 0 0 1 1.232-.514h42.77c.78 0 1.171.945.617 1.49l-8.452 8.45c-.328.33-.77.514-1.232.514H1.02c-.78 0-1.17-.945-.616-1.489l8.451-8.451Zm0-31.547C9.184.185 9.625 0 10.087 0h42.77c.78 0 1.171.945.617 1.489L45.022 9.93c-.328.329-.77.514-1.232.514H1.02c-.78 0-1.17-.945-.616-1.49L8.855.515Zm36.167 15.671a1.742 1.742 0 0 0-1.232-.514H1.02c-.78 0-1.17.945-.616 1.49l8.451 8.44c.329.33.77.514 1.232.514h42.77c.78 0 1.171-.945.617-1.49l-8.452-8.44Z"/>
  </g>
  <defs>
    <clipPath id="a">
      <path fill="#fff" d="M.188 0h224.685v42H.188z"/>
    </clipPath>
  </defs>
</svg>
